<?xml version="1.0" encoding="utf-8"?>
<!-- Generator: Adobe Illustrator 27.5.0, SVG Export Plug-In . SVG Version: 6.00 Build 0)  -->
<svg version="1.1" xmlns="http://www.w3.org/2000/svg" xmlns:xlink="http://www.w3.org/1999/xlink" x="0px" y="0px"
	 viewBox="0 0 500 500" style="enable-background:new 0 0 500 500;" xml:space="preserve">
<g id="Background_complete">
	<g>
		<g>
			<g>
				<g>
					<g>
						<path style="fill:#E0E0E0;" d="M443.92,316.903H263.174c-3.232,0-5.862-2.63-5.862-5.862V47.768
							c0-3.232,2.63-5.862,5.862-5.862H443.92c3.232,0,5.862,2.629,5.862,5.862v263.273
							C449.783,314.273,447.153,316.903,443.92,316.903z M263.174,42.156c-3.095,0-5.612,2.518-5.612,5.612v263.273
							c0,3.095,2.518,5.612,5.612,5.612H443.92c3.095,0,5.612-2.517,5.612-5.612V47.768c0-3.094-2.518-5.612-5.612-5.612H263.174z"
							/>
					</g>
				</g>
				<g>
					<g>
						<path style="fill:#E0E0E0;" d="M235.493,316.903H54.746c-3.232,0-5.862-2.63-5.862-5.862V47.768
							c0-3.232,2.629-5.862,5.862-5.862h180.747c3.232,0,5.862,2.629,5.862,5.862v263.273
							C241.355,314.273,238.725,316.903,235.493,316.903z M54.746,42.156c-3.094,0-5.612,2.518-5.612,5.612v263.273
							c0,3.095,2.518,5.612,5.612,5.612h180.747c3.095,0,5.612-2.517,5.612-5.612V47.768c0-3.094-2.518-5.612-5.612-5.612H54.746z"
							/>
					</g>
				</g>
			</g>
			<g>
				<g>
					<rect x="0" y="377.973" style="fill:#E0E0E0;" width="500" height="0.25"/>
				</g>
			</g>
		</g>
		<rect x="51.672" y="392.237" style="fill:#E0E0E0;" width="16.06" height="0.25"/>
		<rect x="170.352" y="389.527" style="fill:#E0E0E0;" width="53.53" height="0.25"/>
		<rect x="68.732" y="401.527" style="fill:#E0E0E0;" width="36.25" height="0.25"/>
		<rect x="378.352" y="389.397" style="fill:#E0E0E0;" width="43.19" height="0.25"/>
		<rect x="430.452" y="389.397" style="fill:#E0E0E0;" width="6.33" height="0.25"/>
		<rect x="316.212" y="395.627" style="fill:#E0E0E0;" width="53.89" height="0.25"/>
	</g>
	<g>
		<path style="fill:#E6E6E6;" d="M261.964,379.07l-8.111-124.62l0.274-0.02l9.212,124.544
			C262.88,379.008,262.423,379.04,261.964,379.07z M236.794,378.984l-1.198-0.093l9.959-124.485l0.45,0.034L236.794,378.984z
			 M288.691,375.249l-27.247-121.875l0.591-0.133l27.678,121.778L288.691,375.249z M210.437,375.053l-1.176-0.271l28.378-121.617
			l0.435,0.1L210.437,375.053z M314.094,367.593l-44.856-116.55l0.327-0.127l45.744,116.204
			C314.906,367.279,314.501,367.437,314.094,367.593z M184.896,367.201l-1.12-0.443l46.254-116.002l0.422,0.167L184.896,367.201z
			 M338.299,356.113l-61.96-108.429l0.416-0.239l62.557,108.086L338.299,356.113z M160.79,355.59
			c-0.371-0.214-0.741-0.43-1.11-0.647l63.303-107.651l0.321,0.187L160.79,355.59z M360.274,341.323l-77.156-98.198l0.24-0.19
			l77.97,97.554C360.978,340.768,360.626,341.046,360.274,341.323z M138.827,340.611c-0.388-0.309-0.775-0.62-1.16-0.932
			l78.82-96.868l0.129,0.103L138.827,340.611z M379.989,323.278l-91.016-85.511l0.289-0.309l91.567,84.921L379.989,323.278z
			 M119.272,322.486l-0.783-0.848l91.92-84.537l0.337,0.365L119.272,322.486z M396.661,302.697L294.128,231.4l0.152-0.22
			l103.167,70.374C397.187,301.936,396.925,302.316,396.661,302.697z M102.661,301.712c-0.247-0.36-0.492-0.723-0.736-1.085
			l103.596-69.741l0.19,0.28L102.661,301.712z M410.289,279.509l-112.21-54.817l0.255-0.524l112.425,54.375L410.289,279.509z
			 M89.284,278.633c-0.192-0.396-0.382-0.793-0.57-1.19l112.859-53.469l0.141,0.294L89.284,278.633z M420.164,254.863
			l-119.048-37.729l0.09-0.292l119.362,36.727C420.435,254.001,420.301,254.432,420.164,254.863z M79.484,253.738
			c-0.125-0.404-0.248-0.808-0.37-1.212l119.587-35.987l0.113,0.368L79.484,253.738z M426.307,228.699l-123.406-19.155l0.069-0.457
			l123.516,18.435L426.307,228.699z M73.545,227.733c-0.064-0.423-0.126-0.846-0.186-1.268l123.621-17.713l0.054,0.366
			L73.545,227.733z M428.443,202.399l-124.879-1.108l0.001-0.515h124.884v0.243C428.449,201.479,428.447,201.94,428.443,202.399z
			 M196.435,201.14H71.551l0.003-1.15l124.882,0.648L196.435,201.14z M303,193.153l-0.039-0.263l123.461-18.795
			c0.07,0.457,0.138,0.914,0.203,1.372L303,193.153z M197.027,192.967L73.481,174.739c0.064-0.432,0.129-0.864,0.196-1.295
			l123.402,19.184L197.027,192.967z M301.334,185.609l-0.175-0.57l119.313-36.882l0.311,1.01L301.334,185.609z M198.765,185.284
			L79.388,148.609l0.367-1.179l119.137,37.448L198.765,185.284z M298.467,178.145l-0.215-0.448l112.394-54.438l0.499,1.037
			L298.467,178.145z M201.648,177.904L89.152,123.678l0.505-1.041l112.21,54.817L201.648,177.904z M294.541,171.241l-0.32-0.47
			l103.049-70.546l0.609,0.893L294.541,171.241z M205.681,170.914l-103.225-70.289c0.241-0.355,0.484-0.709,0.728-1.061
			l102.705,71.047L205.681,170.914z M289.375,164.701l-0.158-0.17l91.383-85.119c0.323,0.347,0.644,0.695,0.963,1.044
			L289.375,164.701z M210.698,164.623l-91.652-84.829c0.291-0.314,0.583-0.627,0.876-0.939l91.027,85.499L210.698,164.623z
			 M283.564,159.268l-0.276-0.221l77.789-97.697c0.339,0.27,0.678,0.541,1.015,0.814L283.564,159.268z M216.604,159.133
			l-78.082-97.464c0.35-0.28,0.7-0.558,1.052-0.836l77.27,98.109L216.604,159.133z M277.021,154.746l-0.36-0.209l62.375-108.191
			l1.071,0.622L277.021,154.746z M223.208,154.613L160.512,46.607c0.37-0.215,0.741-0.428,1.112-0.64l61.9,108.464L223.208,154.613z
			 M269.793,151.211l-0.327-0.13l45.493-116.303c0.407,0.159,0.811,0.319,1.215,0.481L269.793,151.211z M230.401,151.134
			L184.498,34.993c0.41-0.162,0.821-0.322,1.232-0.481l44.979,116.502L230.401,151.134z M262.244,148.844l-0.328-0.075
			l27.422-121.836c0.428,0.096,0.856,0.194,1.283,0.294L262.244,148.844z M237.934,148.803L210.081,27.065
			c0.434-0.099,0.868-0.197,1.304-0.293l26.857,121.962L237.934,148.803z M254.316,147.621l-0.351-0.026l9.029-124.557
			c0.433,0.031,0.865,0.064,1.296,0.099L254.316,147.621z M245.85,147.608l-9.409-124.529c0.431-0.032,0.863-0.063,1.296-0.093
			l8.466,124.596L245.85,147.608z"/>
	</g>
	<g>
		<g>
			<path style="fill:#F0F0F0;" d="M115.183,155.031c-2.342-1.769-5.759-1.97-8.293-0.486c-3.362-6.794-12.731-9.792-19.413-6.213
				c-1.743-7.321-8.957-12.949-16.482-12.858c-7.525,0.091-14.601,5.89-16.168,13.251c-0.249,1.17-0.414,2.451-1.25,3.306
				c-1.359,1.388-3.629,0.922-5.566,0.771c-6.094-0.475-12.227,3.803-13.884,9.687l83.927-0.306
				C118.79,159.342,117.525,156.801,115.183,155.031z"/>
		</g>
	</g>
	<g>
		<g>
			<path style="fill:#E6E6E6;" d="M461.35,266.708c-2.392-1.807-5.881-2.011-8.467-0.496c-3.433-6.937-12.999-9.999-19.822-6.344
				c-1.78-7.475-9.145-13.221-16.829-13.129c-7.684,0.093-14.908,6.014-16.508,13.53c-0.254,1.194-0.422,2.503-1.277,3.375
				c-1.388,1.418-3.705,0.942-5.683,0.788c-6.223-0.485-12.484,3.883-14.176,9.891l85.694-0.312
				C465.033,271.11,463.741,268.515,461.35,266.708z"/>
		</g>
	</g>
	<g>
		<g>
			<path style="fill:#F0F0F0;" d="M430.49,62.896c-2.092-1.58-5.143-1.759-7.405-0.434c-3.002-6.067-11.369-8.745-17.337-5.548
				c-1.557-6.538-7.999-11.563-14.719-11.483c-6.72,0.081-13.039,5.26-14.438,11.833c-0.222,1.045-0.37,2.189-1.117,2.952
				c-1.214,1.24-3.24,0.824-4.97,0.689c-5.442-0.425-10.919,3.396-12.399,8.651l74.95-0.273
				C433.711,66.745,432.582,64.476,430.49,62.896z"/>
		</g>
	</g>
	<g>
		<g>
			<path style="fill:#F0F0F0;" d="M98.379,254.58c-1.175-0.888-2.889-0.988-4.16-0.244c-1.687-3.408-6.387-4.912-9.739-3.117
				c-0.874-3.673-4.493-6.496-8.268-6.45c-3.775,0.046-7.325,2.955-8.11,6.647c-0.125,0.587-0.208,1.23-0.627,1.658
				c-0.682,0.696-1.82,0.463-2.792,0.387c-3.057-0.238-6.134,1.908-6.965,4.859l42.102-0.153
				C100.189,256.742,99.554,255.468,98.379,254.58z"/>
		</g>
	</g>
	<g>
		<g>
			<path style="fill:#F0F0F0;" d="M453.175,93.462c-1.175-0.888-2.889-0.988-4.16-0.244c-1.687-3.408-6.387-4.912-9.739-3.117
				c-0.875-3.673-4.493-6.496-8.268-6.45c-3.775,0.046-7.324,2.955-8.11,6.647c-0.125,0.587-0.208,1.23-0.627,1.658
				c-0.682,0.696-1.82,0.463-2.792,0.387c-3.057-0.238-6.133,1.908-6.965,4.86l42.102-0.153
				C454.985,95.624,454.35,94.35,453.175,93.462z"/>
		</g>
	</g>
</g>
<g id="Background_simple" style="display:none;">
	<g style="display:inline;">
		<path style="fill:#407BFF;" d="M175.258,56.677c-24.501,2.847-48.128,8.907-69.082,18.414
			c-24.697,11.204-49.932,28.659-42.479,51.49c13.76,42.149,79.769,42.917,66.59,71.257c-14.929,32.102-4.917,69.757,62.071,80.228
			c127.235,19.889,281.042-96.484,237.844-160.43C403.307,77.825,305.354,41.562,175.258,56.677z"/>
		<path style="opacity:0.9;fill:#FFFFFF;" d="M175.258,56.677c-24.501,2.847-48.128,8.907-69.082,18.414
			c-24.697,11.204-49.932,28.659-42.479,51.49c13.76,42.149,79.769,42.917,66.59,71.257c-14.929,32.102-4.917,69.757,62.071,80.228
			c127.235,19.889,281.042-96.484,237.844-160.43C403.307,77.825,305.354,41.562,175.258,56.677z"/>
	</g>
</g>
<g id="Shadow">
	<g>
		<g>
			<path style="fill:#F5F5F5;" d="M435.831,436.088c0,10.113-83.199,18.312-185.831,18.312s-185.831-8.199-185.831-18.312
				c0-10.114,83.199-18.312,185.831-18.312S435.831,425.974,435.831,436.088z"/>
		</g>
	</g>
</g>
<g id="Plants">
	<g>
		<g>
			<path style="fill:#407BFF;" d="M77.51,360.453c2.284-2.815,6.697-4.693,11.542-5.597c-0.38,1.386-0.095,2.664,0.724,2.978
				c0.914,0.35,2.14-0.631,2.738-2.192c0.169-0.441,0.263-0.877,0.3-1.289c4.885-0.397,9.77,0.165,13.031,1.73
				c0,0-3.192,2.877-6.807,10.442c-0.111-0.004-0.222-0.008-0.335-0.007c-2.34,0.024-4.225,1.154-4.212,2.524
				c0.01,1.001,1.033,1.851,2.495,2.228c-0.19,0.484-0.38,0.977-0.569,1.489c-3.444,9.322-12.633,2.583-12.55-3.797
				C83.867,368.963,72.393,366.76,77.51,360.453z"/>
			<path style="opacity:0.3;" d="M77.51,360.453c2.284-2.815,6.697-4.693,11.542-5.597c-0.38,1.386-0.095,2.664,0.724,2.978
				c0.914,0.35,2.14-0.631,2.738-2.192c0.169-0.441,0.263-0.877,0.3-1.289c4.885-0.397,9.77,0.165,13.031,1.73
				c0,0-3.192,2.877-6.807,10.442c-0.111-0.004-0.222-0.008-0.335-0.007c-2.34,0.024-4.225,1.154-4.212,2.524
				c0.01,1.001,1.033,1.851,2.495,2.228c-0.19,0.484-0.38,0.977-0.569,1.489c-3.444,9.322-12.633,2.583-12.55-3.797
				C83.867,368.963,72.393,366.76,77.51,360.453z"/>
			<g>
				<path style="fill:#407BFF;" d="M66.19,348.42c-2.814-3.038-7.986-4.849-13.577-5.517c0.537,1.552,0.308,3.03-0.603,3.45
					c-1.016,0.468-2.487-0.56-3.285-2.294c-0.225-0.49-0.365-0.98-0.438-1.447c-5.599-0.087-11.126,0.919-14.726,2.947
					c0,0,3.854,3.041,8.542,11.395c0.126-0.013,0.253-0.025,0.382-0.032c2.669-0.148,4.904,0.999,4.991,2.562
					c0.063,1.142-1.039,2.188-2.678,2.727c0.253,0.538,0.506,1.086,0.76,1.655c4.624,10.369,14.595,2,14.023-5.268
					C59.58,358.598,72.496,355.228,66.19,348.42z"/>
				<g>
					<g>
						<g>
							<path style="fill:#407BFF;" d="M59.357,346.144c1.195-5.833,6.204-11.914,12.58-16.904c0.497,2.308,1.881,3.955,3.313,3.792
								c1.598-0.182,2.64-2.541,2.329-5.269c-0.088-0.77-0.282-1.477-0.54-2.105c6.819-4.281,14.364-7.165,20.302-7.355
								c0,0-2.472,6.612-2.007,20.378c-0.165,0.078-0.33,0.157-0.494,0.245c-3.392,1.808-5.284,4.883-4.226,6.87
								c0.773,1.451,2.909,1.915,5.325,1.357c0.09,0.85,0.187,1.712,0.3,2.601c2.045,16.196-16.453,13.339-21.168,3.977
								C75.071,353.729,56.679,359.214,59.357,346.144z"/>
							<path style="opacity:0.5;fill:#FFFFFF;" d="M59.357,346.144c1.195-5.833,6.204-11.914,12.58-16.904
								c0.497,2.308,1.881,3.955,3.313,3.792c1.598-0.182,2.64-2.541,2.329-5.269c-0.088-0.77-0.282-1.477-0.54-2.105
								c6.819-4.281,14.364-7.165,20.302-7.355c0,0-2.472,6.612-2.007,20.378c-0.165,0.078-0.33,0.157-0.494,0.245
								c-3.392,1.808-5.284,4.883-4.226,6.87c0.773,1.451,2.909,1.915,5.325,1.357c0.09,0.85,0.187,1.712,0.3,2.601
								c2.045,16.196-16.453,13.339-21.168,3.977C75.071,353.729,56.679,359.214,59.357,346.144z"/>
							<g>
								<path style="fill:#263238;" d="M87.864,329.28c0.168-0.188,0.26-0.284,0.26-0.284
									C88.036,329.091,87.952,329.186,87.864,329.28z"/>
							</g>
						</g>
					</g>
				</g>
				<path style="fill:none;stroke:#263238;stroke-width:0.5;stroke-miterlimit:10;" d="M72.684,383.093
					c-3.081-17.124,1.521-35.485,12.316-49.131"/>
				<path style="fill:none;stroke:#263238;stroke-width:0.5;stroke-linecap:round;stroke-linejoin:round;stroke-miterlimit:10;" d="
					M49.833,350.183c12.947,6.723,20.1,21.156,22.015,26.769c0,0,15.852-11.502,23.495-16.399"/>
				<g>
					<polygon style="fill:#263238;" points="91.685,388.565 52.761,388.565 52.776,381.435 91.645,381.435 					"/>
					<polygon style="fill:#263238;" points="55.581,386.24 61.662,411.54 84.059,411.54 89.482,386.24 					"/>
					<polygon style="opacity:0.3;" points="56.139,388.565 88.983,388.565 88.383,391.366 56.724,391.366 					"/>
				</g>
			</g>
		</g>
		<path style="fill:none;stroke:#407BFF;stroke-width:0.5;stroke-linecap:round;stroke-linejoin:round;stroke-miterlimit:10;" d="
			M54.931,379.972c1.154,0,2.308,0,3.463,0"/>
		<path style="fill:none;stroke:#407BFF;stroke-width:0.5;stroke-linecap:round;stroke-linejoin:round;stroke-miterlimit:10;" d="
			M59.985,379.972c3.159,0,6.317,0,9.476,0"/>
	</g>
	<g>
		<g>
			<path style="fill:#407BFF;" d="M437.103,364.486c2.283-2.815,6.697-4.693,11.542-5.596c-0.38,1.386-0.095,2.664,0.724,2.979
				c0.914,0.35,2.14-0.631,2.738-2.192c0.169-0.441,0.263-0.877,0.3-1.289c4.885-0.397,9.77,0.165,13.031,1.73
				c0,0-3.192,2.877-6.807,10.442c-0.111-0.004-0.222-0.008-0.335-0.007c-2.34,0.024-4.225,1.154-4.212,2.524
				c0.01,1.001,1.033,1.851,2.495,2.229c-0.19,0.484-0.38,0.977-0.569,1.489c-3.444,9.321-12.633,2.583-12.55-3.797
				C443.459,372.996,431.986,370.793,437.103,364.486z"/>
			<path style="opacity:0.3;" d="M437.103,364.486c2.283-2.815,6.697-4.693,11.542-5.596c-0.38,1.386-0.095,2.664,0.724,2.979
				c0.914,0.35,2.14-0.631,2.738-2.192c0.169-0.441,0.263-0.877,0.3-1.289c4.885-0.397,9.77,0.165,13.031,1.73
				c0,0-3.192,2.877-6.807,10.442c-0.111-0.004-0.222-0.008-0.335-0.007c-2.34,0.024-4.225,1.154-4.212,2.524
				c0.01,1.001,1.033,1.851,2.495,2.229c-0.19,0.484-0.38,0.977-0.569,1.489c-3.444,9.321-12.633,2.583-12.55-3.797
				C443.459,372.996,431.986,370.793,437.103,364.486z"/>
			<g>
				<path style="fill:#407BFF;" d="M425.783,352.453c-2.814-3.038-7.986-4.849-13.577-5.517c0.537,1.552,0.308,3.031-0.603,3.45
					c-1.016,0.468-2.487-0.559-3.285-2.294c-0.225-0.49-0.365-0.98-0.438-1.447c-5.599-0.087-11.126,0.919-14.726,2.947
					c0,0,3.854,3.041,8.542,11.395c0.126-0.013,0.253-0.025,0.382-0.032c2.669-0.148,4.904,0.999,4.99,2.562
					c0.063,1.142-1.039,2.187-2.678,2.727c0.253,0.538,0.506,1.086,0.76,1.655c4.624,10.369,14.595,2,14.023-5.268
					C419.173,362.631,432.088,359.261,425.783,352.453z"/>
				<g>
					<g>
						<g>
							<path style="fill:#407BFF;" d="M418.949,350.177c1.195-5.833,6.204-11.915,12.58-16.904c0.497,2.308,1.881,3.955,3.313,3.792
								c1.598-0.182,2.64-2.542,2.329-5.269c-0.088-0.77-0.282-1.477-0.54-2.105c6.819-4.281,14.364-7.165,20.302-7.355
								c0,0-2.472,6.612-2.007,20.378c-0.165,0.078-0.33,0.157-0.494,0.245c-3.392,1.808-5.284,4.883-4.226,6.87
								c0.773,1.451,2.909,1.915,5.325,1.357c0.09,0.85,0.187,1.712,0.299,2.601c2.045,16.196-16.453,13.339-21.168,3.977
								C434.663,357.763,416.272,363.246,418.949,350.177z"/>
							<path style="opacity:0.5;fill:#FFFFFF;" d="M418.949,350.177c1.195-5.833,6.204-11.915,12.58-16.904
								c0.497,2.308,1.881,3.955,3.313,3.792c1.598-0.182,2.64-2.542,2.329-5.269c-0.088-0.77-0.282-1.477-0.54-2.105
								c6.819-4.281,14.364-7.165,20.302-7.355c0,0-2.472,6.612-2.007,20.378c-0.165,0.078-0.33,0.157-0.494,0.245
								c-3.392,1.808-5.284,4.883-4.226,6.87c0.773,1.451,2.909,1.915,5.325,1.357c0.09,0.85,0.187,1.712,0.299,2.601
								c2.045,16.196-16.453,13.339-21.168,3.977C434.663,357.763,416.272,363.246,418.949,350.177z"/>
							<g>
								<path style="fill:#263238;" d="M447.457,333.313c0.168-0.188,0.26-0.284,0.26-0.284
									C447.628,333.124,447.544,333.219,447.457,333.313z"/>
							</g>
						</g>
					</g>
				</g>
				<path style="fill:none;stroke:#263238;stroke-width:0.5;stroke-miterlimit:10;" d="M432.277,387.126
					c-3.081-17.125,1.522-35.485,12.316-49.131"/>
				<path style="fill:none;stroke:#263238;stroke-width:0.5;stroke-linecap:round;stroke-linejoin:round;stroke-miterlimit:10;" d="
					M409.425,354.216c12.947,6.723,20.1,21.156,22.015,26.769c0,0,15.852-11.502,23.495-16.399"/>
				<g>
					<polygon style="fill:#263238;" points="451.278,392.598 412.353,392.598 412.369,385.468 451.238,385.468 					"/>
					<polygon style="fill:#263238;" points="415.173,390.273 421.255,415.573 443.651,415.573 449.074,390.273 					"/>
					<polygon style="opacity:0.3;" points="415.732,392.598 448.576,392.598 447.976,395.399 416.316,395.399 					"/>
				</g>
			</g>
		</g>
		<path style="fill:none;stroke:#407BFF;stroke-width:0.5;stroke-linecap:round;stroke-linejoin:round;stroke-miterlimit:10;" d="
			M414.524,384.005c1.154,0,2.308,0,3.462,0"/>
		<path style="fill:none;stroke:#407BFF;stroke-width:0.5;stroke-linecap:round;stroke-linejoin:round;stroke-miterlimit:10;" d="
			M419.577,384.005c3.159,0,6.317,0,9.476,0"/>
	</g>
</g>
<g id="Device">
	<g>
		<g>
			<path style="fill:#263238;" d="M346.92,378.098H159.859c-6.928,0-12.545-5.616-12.545-12.545V90.715
				c0-6.928,5.617-12.545,12.545-12.545H346.92c6.928,0,12.545,5.616,12.545,12.545v274.838
				C359.464,372.481,353.848,378.098,346.92,378.098z"/>
			<path style="opacity:0.3;fill:#FFFFFF;" d="M346.92,378.098H159.859c-6.928,0-12.545-5.616-12.545-12.545V90.715
				c0-6.928,5.617-12.545,12.545-12.545H346.92c6.928,0,12.545,5.616,12.545,12.545v274.838
				C359.464,372.481,353.848,378.098,346.92,378.098z"/>
			<path style="fill:#FFFFFF;" d="M342.352,368.916H164.426c-4.381,0-7.932-3.551-7.932-7.932V98.359
				c0-4.381,3.551-7.932,7.932-7.932h177.926c4.38,0,7.932,3.551,7.932,7.932v262.625
				C350.284,365.365,346.732,368.916,342.352,368.916z"/>
			<g id="freepik--background-complete--inject-33">
				<polygon style="fill:#F0F0F0;" points="201.528,129.042 204.439,127.415 207.349,129.042 206.795,125.59 209.15,123.141 
					205.894,122.635 204.439,119.501 202.983,122.635 199.727,123.141 202.083,125.59 				"/>
				<path style="fill:#F0F0F0;" d="M340.64,290.836h-23.784v-45.523c4.181-0.513,7.34-4.279,7.349-8.762v-0.942
					c0.005-4.882-3.707-8.843-8.29-8.848c-0.005,0-0.011,0-0.016,0v-11.486l4.824-1.782c-7.064-15.985-11.896-32.983-14.345-50.457
					l-2.718-19.426l-2.774,19.426c-2.445,17.473-7.275,34.472-14.337,50.457l4.824,1.782v11.469c-4.587,0-8.306,3.961-8.306,8.848
					v0.959c0,0.103,0,0.197,0,0.291H240.26v-28.23h-0.153c8.137-5.687,13.154-13.464,13.154-22.055
					c0-12.299-10.3-22.954-25.32-28.153c-8.987-3.157-16.283-10.249-20.053-19.494c5.773-0.203,10.298-5.353,10.107-11.503
					c-0.191-6.149-5.026-10.97-10.799-10.766c-0.408,0.004-0.816,0.03-1.222,0.077c4.501,0.617,7.68,5.005,7.101,9.799
					c-0.579,4.795-4.698,8.182-9.199,7.564c-3.704-0.508-6.62-3.612-7.1-7.557c-0.051,0.429-0.078,0.861-0.081,1.293
					c0.006,5.843,4.235,10.696,9.705,11.135c-3.776,9.236-11.071,16.317-20.053,19.468c-15.028,5.199-25.328,15.854-25.328,28.153
					c0,8.565,5.025,16.368,13.162,22.055h-0.161v28.213h-17.722v132.074h184.34v-63.51c2.767,0.005,5.013-2.38,5.017-5.327
					c0-0.003,0-0.006,0-0.009v-3.889C345.657,293.229,343.411,290.836,340.64,290.836z"/>
				<rect x="156.299" y="245.313" style="fill:#E6E6E6;" width="160.556" height="45.523"/>
				<path style="fill:#E0E0E0;" d="M231.142,325.457c0-6.398-5.355-11.948-13.179-14.646c-5.012-1.761-8.996-5.861-10.823-11.135
					l0,0c-1.827,5.274-5.811,9.373-10.823,11.135c-7.816,2.698-13.179,8.248-13.179,14.646c0.025,2.37,0.732,4.676,2.026,6.604
					v36.83h43.958v-36.83C230.412,330.129,231.116,327.825,231.142,325.457z"/>
				<path style="fill:#E0E0E0;" d="M250.069,323.127L250.069,323.127c-4.354,0.01-7.88,3.772-7.88,8.411v37.361h15.8v-37.361
					c-0.004-4.65-3.547-8.416-7.912-8.411C250.075,323.127,250.072,323.127,250.069,323.127z"/>
				<path style="fill:#E0E0E0;" d="M275.06,323.127L275.06,323.127c4.365,0,7.904,3.77,7.904,8.419v37.361l0,0h-15.808l0,0v-37.369
					C267.16,326.891,270.698,323.127,275.06,323.127z"/>
				<path style="fill:#E0E0E0;" d="M300.042,323.127L300.042,323.127c4.365,0,7.904,3.77,7.904,8.419v37.361l0,0h-15.808l0,0
					v-37.369C292.143,326.891,295.68,323.127,300.042,323.127z"/>
				<path style="fill:#E0E0E0;" d="M325.009,323.127L325.009,323.127c-4.361,0-7.896,3.766-7.896,8.411l0,0v37.361h15.8v-37.361
					C332.908,326.891,329.371,323.127,325.009,323.127z"/>
				<path style="fill:#E0E0E0;" d="M164.195,323.127L164.195,323.127c-4.361,0-7.896,3.766-7.896,8.411l0,0v37.361h15.8v-37.361
					C172.095,326.891,168.557,323.127,164.195,323.127z"/>
				<polygon style="fill:#E0E0E0;" points="174.984,269.864 182.705,261.639 190.426,269.864 182.705,278.088 				"/>
				<polygon style="fill:#E0E0E0;" points="223.854,269.865 231.574,261.641 239.296,269.865 231.574,278.09 				"/>
				<polygon style="fill:#E0E0E0;" points="272.723,269.867 280.444,261.642 288.165,269.867 280.444,278.092 				"/>
				<polygon style="fill:#E6E6E6;" points="174.021,236.825 240.26,236.825 240.26,208.612 174.182,208.612 				"/>
				<rect x="291.391" y="215.275" style="fill:#E0E0E0;" width="24.476" height="11.469"/>
			</g>
		</g>
		<path style="fill:#263238;" d="M273.469,86.052h-40.16c-0.462,0-0.837-0.375-0.837-0.837v-0.985c0-0.462,0.375-0.837,0.837-0.837
			h40.16c0.462,0,0.837,0.375,0.837,0.837v0.985C274.306,85.677,273.932,86.052,273.469,86.052z"/>
	</g>
</g>
<g id="Character_2">
	<g>
		<g>
			<g>
				<path style="fill:#B97964;" d="M325.53,234.373l-5.945,4.836l9.132,9.169l5.483-8.976c2.62-2.104,8.659-4.686,14.962-7.568
					c4.089-1.908,5.996-11.469,5.996-11.469s2.984-4.564,1.006-5.474c-4.657-2.142-10.096,7.377-10.873,7.636
					c-4.762,2.376-7.693,3.518-8.515,3.376c-0.822-0.142,5.974-2.945,6.618-5.627c0.645-2.682-7.224,2.345-10.414,2.751
					C329.788,223.433,325.199,232.587,325.53,234.373z"/>
			</g>
			<g>
				
					<path style="opacity:0.3;fill:none;stroke:#000000;stroke-width:0.5;stroke-linecap:round;stroke-linejoin:round;stroke-miterlimit:10;" d="
					M341.089,225.682c2.319,0.97,4.407,2.489,6.043,4.398"/>
				
					<path style="opacity:0.3;fill:none;stroke:#000000;stroke-width:0.5;stroke-linecap:round;stroke-linejoin:round;stroke-miterlimit:10;" d="
					M346.301,229.257l2.413-1.677c0,0,2.993-6.151,4.661-7.35c0.867-0.623,1.454,0.263,1.454,0.263"/>
				
					<path style="opacity:0.3;fill:none;stroke:#000000;stroke-width:0.5;stroke-linecap:round;stroke-linejoin:round;stroke-miterlimit:10;" d="
					M343.587,226.997c0,0,3.551-1.425,4.182-2.17c0.631-0.745,4.831-7.584,6.622-9.164c1.385-1.222,2.098,0,2.098,0"/>
			</g>
		</g>
		<g>
			<g>
				<g>
					<g>
						<g>
							<path style="fill:#B97964;" d="M227.636,191.534c0,0,1.314-9.424-4.204-25.76c0-0.018,0.854-0.442,0.854-0.46
								c-0.762-2.285-1.559-4.393-2.303-6.217c-0.018-0.053-0.018-0.071-0.018-0.071l23.24,13.002
								c-0.301,5.314,2.043,15.455,3.363,19.723c0,0,1.699,6.647-8.688,7.441C232.294,199.772,227.636,191.534,227.636,191.534z"/>
							<path style="opacity:0.2;" d="M245.919,179.449l-13.153-2.369c1.358,3.999,5.152,8.645,14.233,8.642
								C247,185.721,245.898,181.227,245.919,179.449z"/>
						</g>
						<g>
							<path style="fill:#B97964;" d="M221.313,148.038c2.151,14.281,3.076,22.38,10.987,29.041
								c11.901,10.02,28.673,2.074,30.838-12.605c1.948-13.213-1.896-34.348-16.473-38.684
								C232.304,121.519,219.163,133.757,221.313,148.038z"/>
							<path style="fill:#263238;" d="M217.967,130.933c1.272-8.087,21.097-9.926,26.994-6.372c0.881,0.531,9.202,5.703,9.891,5.38
								l-24.419,3.574c-0.869-0.114-2.943,1.624-3.576,4.347c0,0,2.574,21.96-3.101,28.884c-5.23-2.002-6.293-10.702-8.333-15.758
								C212.383,143.455,212.009,132.579,217.967,130.933z"/>
							<path style="opacity:0.7;fill:#FFFFFF;" d="M217.967,130.933c1.272-8.087,21.097-9.926,26.994-6.372
								c0.881,0.531,9.202,5.703,9.891,5.38l-24.419,3.574c-0.869-0.114-2.943,1.624-3.576,4.347c0,0,2.574,21.96-3.101,28.884
								c-5.23-2.002-6.293-10.702-8.333-15.758C212.383,143.455,212.009,132.579,217.967,130.933z"/>
							<path style="fill:#B97964;" d="M216.7,160.509c1.474,3.596,4.478,6.158,7.452,7.322c4.473,1.75,5.657-3.076,4.851-7.565
								c-0.726-4.04-2.352-8.895-7.052-8.727C217.32,151.706,215.014,156.398,216.7,160.509z"/>
							<path style="fill:#263238;" d="M240.148,150.745c0.13,1.469,1.014,2.584,1.975,2.49c0.961-0.094,1.635-1.362,1.505-2.832
								c-0.13-1.469-1.014-2.584-1.975-2.49C240.693,148.008,240.019,149.275,240.148,150.745z"/>
							<path style="fill:#263238;" d="M255.45,150.745c0.13,1.47,1.014,2.584,1.975,2.49c0.961-0.094,1.635-1.362,1.505-2.832
								c-0.13-1.469-1.014-2.584-1.975-2.489C255.994,148.008,255.32,149.275,255.45,150.745z"/>
							<path style="fill:#A24E3F;" d="M251.909,148.981c0,0,5.297,6.89,7.05,9.732c-1.882,2.028-5.48,1.488-5.48,1.488
								L251.909,148.981z"/>
							<path style="fill:#263238;" d="M238.029,143.76c0.23,0.071,0.492,0.02,0.682-0.158c2.261-2.109,4.741-1.545,4.766-1.539
								c0.371,0.089,0.747-0.139,0.839-0.508c0.092-0.369-0.135-0.741-0.504-0.83c-0.13-0.032-3.238-0.74-6.043,1.877
								c-0.28,0.261-0.296,0.697-0.036,0.973C237.817,143.665,237.919,143.726,238.029,143.76z"/>
							<path style="opacity:0.7;fill:#FFFFFF;" d="M238.029,143.76c0.23,0.071,0.492,0.02,0.682-0.158
								c2.261-2.109,4.741-1.545,4.766-1.539c0.371,0.089,0.747-0.139,0.839-0.508c0.092-0.369-0.135-0.741-0.504-0.83
								c-0.13-0.032-3.238-0.74-6.043,1.877c-0.28,0.261-0.296,0.697-0.036,0.973C237.817,143.665,237.919,143.726,238.029,143.76z"
								/>
							
								<path style="fill:none;stroke:#263238;stroke-width:0.75;stroke-linecap:round;stroke-linejoin:round;stroke-miterlimit:10;" d="
								M249.077,165.308c-2.382,0.229-4.336-0.797-6.339-2.409"/>
						</g>
						
							<path style="opacity:0.2;fill:none;stroke:#000000;stroke-width:0.5;stroke-linecap:round;stroke-linejoin:round;stroke-miterlimit:10;" d="
							M219.629,156.249c0.503-0.908,1.655-1.328,2.681-1.169c1.026,0.158,1.923,0.803,2.61,1.582
							c0.823,0.935,1.397,2.089,1.646,3.31"/>
					</g>
					<path style="fill:#263238;" d="M262.481,142.618c0.125-0.039,0.241-0.114,0.331-0.224c0.242-0.296,0.202-0.733-0.091-0.975
						c-2.937-2.423-5.963-1.464-6.104-1.438c-0.362,0.117-0.565,0.507-0.452,0.871c0.113,0.363,0.495,0.563,0.856,0.451
						c0.124-0.045,2.465-0.754,4.823,1.191C262.027,142.646,262.268,142.684,262.481,142.618z"/>
					<path style="opacity:0.7;fill:#FFFFFF;" d="M262.481,142.618c0.125-0.039,0.241-0.114,0.331-0.224
						c0.242-0.296,0.202-0.733-0.091-0.975c-2.937-2.423-5.963-1.464-6.104-1.438c-0.362,0.117-0.565,0.507-0.452,0.871
						c0.113,0.363,0.495,0.563,0.856,0.451c0.124-0.045,2.465-0.754,4.823,1.191C262.027,142.646,262.268,142.684,262.481,142.618z"
						/>
				</g>
			</g>
			<path style="fill:#407BFF;" d="M214.231,147.908c0,0,12.256-21.013,33.985-18.826c3.623,0.365,6.693,1.356,8.771,4.346
				c0.135,0.195,0.263,0.39,0.38,0.584c0,0-5.243-18.153-24.601-16.677C213.408,118.81,211.096,139.12,214.231,147.908z"/>
			<path style="opacity:0.3;" d="M255.62,129.965c-0.019-0.027-0.035-0.055-0.053-0.082c-2.079-2.99-5.148-3.981-8.772-4.346
				c-19.31-1.943-31.13,14.424-33.524,18.094c0.194,1.593,0.52,3.05,0.958,4.277c0,0,12.256-21.013,33.985-18.826
				c3.623,0.365,6.693,1.356,8.771,4.346c0.135,0.195,0.263,0.39,0.38,0.584C257.365,134.012,256.867,132.296,255.62,129.965z"/>
			<path style="fill:#263238;" d="M249.491,176.767c0.917-0.257,0.916-2.143,0.916-2.143s2.556,5.648-3.239,6.003
				c-5.795,0.355-8.668-1.837-9.317-4.219c-0.649-2.381,3.028-4.997,3.028-4.997s-1.022,1.431,0.843,3.371
				c1.173,1.136,2.913,1.458,4.415,0.818C246.136,175.6,248.574,177.023,249.491,176.767z"/>
			<path style="opacity:0.7;fill:#FFFFFF;" d="M249.491,176.767c0.917-0.257,0.916-2.143,0.916-2.143s2.556,5.648-3.239,6.003
				c-5.795,0.355-8.668-1.837-9.317-4.219c-0.649-2.381,3.028-4.997,3.028-4.997s-1.022,1.431,0.843,3.371
				c1.173,1.136,2.913,1.458,4.415,0.818C246.136,175.6,248.574,177.023,249.491,176.767z"/>
		</g>
		<g>
			<g>
				<path style="fill:#B97964;" d="M192.624,330.05l-8.646-1.597c-2.14,7.623-3.298,15.488-3.445,23.404
					c-0.057,5.155,7.798,11.53,7.798,11.53s2.463,6.287,4.219,4.524c1.756-1.763-2.05-10.463-2.082-12.418
					c-0.093-6.079-0.228-12.219,0.325-12.996c0.552-0.777,0.08,7.608,2.524,9.598c2.444,1.99,1.156-8.599,2.315-12.086
					C196.791,336.523,194.627,330.592,192.624,330.05z"/>
				<path style="opacity:0.2;enable-background:new    ;" d="M187.595,362.547c-1.986-3.626-2.931-7.73-2.733-11.859
					c-0.047-0.325,0.544-0.377,0.521-0.075c-0.203,4.044,0.713,8.066,2.648,11.622c0.158,0.293-0.283,0.572-0.441,0.279
					L187.595,362.547z"/>
				<path style="opacity:0.2;enable-background:new    ;" d="M183.637,352.789c-0.015,2.092,0.447,4.161,1.35,6.048
					c0.158,0.293-0.348,0.465-0.493,0.154c-0.923-1.928-1.396-4.039-1.385-6.176c-0.047-0.325,0.53-0.358,0.52-0.075
					L183.637,352.789z"/>
			</g>
			<g>
				<path style="fill:#407BFF;" d="M323.366,234.332l-20.926,17.881c0,0-0.938-3.313-2.347-8.15l0,0
					c-3.145-10.638-6.463-27.447-13.53-40.445c-8.114-16.664-21.729-12.402-21.729-12.402c-8.509,6.207-9.639,23.548,16.017,60.628
					c2.362,9.109,4.913,18.46,6.067,21.06c2.432,5.476,13.772,6.707,21.153,1.097c8.242-6.264,24.114-30.813,24.114-30.813
					L323.366,234.332z"/>
				<path style="opacity:0.3;" d="M323.366,234.332l-20.926,17.881c0,0-0.938-3.313-2.347-8.15l0,0
					c-3.145-10.638-6.463-27.447-13.53-40.445c-8.114-16.664-21.729-12.402-21.729-12.402c-8.509,6.207-9.639,23.548,16.017,60.628
					c2.362,9.109,4.913,18.46,6.067,21.06c2.432,5.476,13.772,6.707,21.153,1.097c8.242-6.264,24.114-30.813,24.114-30.813
					L323.366,234.332z"/>
				<path style="fill:#407BFF;" d="M296.73,369.721c-0.199,0.459-8.404-56.202-10.222-73.329
					c-3.204-30.181-8.054-75.965-13.035-103.107c-0.547-0.593-4.115-2.742-6.08-2.742c-7.029-0.165-34.106-2.209-61.434,2.575
					l3.491,83.745c0.701,0.792-8.276,72.524-11.484,92.858H296.73z"/>
				<path style="opacity:0.3;" d="M296.73,369.721c-0.199,0.459-8.404-56.202-10.222-73.329
					c-3.204-30.181-8.054-75.965-13.035-103.107c-0.547-0.593-4.115-2.742-6.08-2.742c-7.029-0.165-34.106-2.209-61.434,2.575
					l3.491,83.745c0.701,0.792-8.276,72.524-11.484,92.858H296.73z"/>
				<polygon style="fill:#407BFF;" points="224.428,190.728 227.537,184.032 239.883,189.524 246.548,183.627 251.709,189.969 
					242.845,206.259 				"/>
				<path style="opacity:0.2;enable-background:new    ;" d="M282.926,262.631l-3.144-48.309c0,0,2.6,11.388,2.861,23.119
					C282.896,248.855,282.926,262.631,282.926,262.631z"/>
				<path style="opacity:0.2;enable-background:new    ;" d="M302.44,252.213c0,0-1.201,4.374-0.562,8.318l3.991-11.248
					L302.44,252.213z"/>
				<path style="fill:#407BFF;" d="M191.683,207.557c-5.117,14.758-3.887,51.261-5.968,61.56c-2.992,14.804-3.954,62.48-3.954,62.48
					l16.7,1.521l7.443-53.097l4.089-41.459l0.157-46.176C210.151,192.385,196.801,192.799,191.683,207.557z"/>
				<path style="opacity:0.3;" d="M191.683,207.557c-5.117,14.758-3.887,51.261-5.968,61.56c-2.992,14.804-3.954,62.48-3.954,62.48
					l16.7,1.521l7.443-53.097l4.089-41.459l0.157-46.176C210.151,192.385,196.801,192.799,191.683,207.557z"/>
				<polygon style="fill:#407BFF;" points="181.93,324.913 196.962,326.889 197.277,324.536 182.007,322.652 				"/>
				<polygon style="fill:#407BFF;" points="319.332,237.779 328.804,248.264 330.017,246.467 320.599,236.697 				"/>
			</g>
		</g>
		<polygon style="opacity:0.2;enable-background:new    ;" points="208.49,253.811 208.009,223.75 211.872,251.55 209.451,276.863 
					"/>
	</g>
</g>
<g id="Character_3">
	<g>
		<path style="fill:#E0E0E0;" d="M390.787,432.816c8.556,1.1,16.234,1.032,24.728,1.14c1.87,0.023,2.092-4.361-2.063-5.313
			c-6.88-1.568-5.244-0.091-10.01-3.756c-2.998-2.297-3.996-4.976-5.849-7.502c-0.026-0.036-0.053-0.072-0.079-0.107
			c-1.704-2.228-4.892-2.652-7.12-0.948l-6.008,6.145c-0.291,0.298-0.303,0.77-0.029,1.083l3.91,8.351
			C389.014,432.426,389.883,432.738,390.787,432.816z"/>
		<path d="M389.186,430.629c1.164-0.316,2.848-0.755,3.292-2.914c0.771-3.776,0.72-7.935-3.506-9.39
			c-5.063-1.746-16.229-2.486-21.514-3.355c7.344-2.378,11.771-8.467,8.703-26.339l-26.576,1.851c0,0-43.77,19.739-45,29.981
			C301.206,448.735,389.201,430.629,389.186,430.629z"/>
		<g>
			<g>
				<path style="fill:#407BFF;" d="M349.259,324.349c0.044-0.113-7.269-0.766-10.26,8.52c-1.647,5.113-3.541,20.629-3.541,20.629
					l-4.266-8.215l-10.303,6.605c0,0,7.362,18.083,10.707,22.697c3.345,4.614,11.882,4.895,11.882,4.895l3.515-23.773
					L349.259,324.349z"/>
			</g>
			<path style="opacity:0.4;enable-background:new    ;" d="M341.964,379.349c-1.595-0.228-3.069-0.503-4.253-0.89
				c0,0,2.143-35.732,2.148-36.101C339.863,341.989,341.964,379.349,341.964,379.349z"/>
			<path style="fill:#A24E3F;" d="M318.332,336.821c0.045,1.882,0.131,7.661,0.81,8.747c0.679,1.086,3.248,5.849,3.248,5.849
				l7.451-6.184l-1.999-2.089c0,0,0.418-4.961,0-6.324c-0.418-1.364-1.262-1.447-1.262-1.447s-2.7-11.281-3.755-11.281
				c0,0-1.94-1.118-2.715,1.279C319.336,327.77,318.267,334.107,318.332,336.821z"/>
		</g>
		<path style="fill:#E0E0E0;" d="M404.747,437.815c8.556,1.1,16.234,1.032,24.728,1.14c1.87,0.023,2.092-4.361-2.064-5.313
			c-6.88-1.568-5.244-0.091-10.01-3.756c-2.998-2.297-3.996-4.976-5.849-7.502c-0.026-0.036-0.052-0.072-0.079-0.107
			c-1.704-2.228-4.892-2.652-7.12-0.948l-6.008,6.145c-0.291,0.298-0.303,0.77-0.029,1.083l3.91,8.351
			C402.975,437.425,403.843,437.737,404.747,437.815z"/>
		<path style="fill:#263238;" d="M404.715,438.288c1.3-0.354,3.181-0.844,3.677-3.255c0.861-4.218,0.804-8.864-3.916-10.488
			c-5.655-1.95-18.128-2.777-24.031-3.748c8.203-2.656,13.148-9.457,9.721-29.421l-29.685,2.068c0,0-48.891,22.049-50.265,33.489
			C306.443,458.513,404.733,438.288,404.715,438.288z"/>
		<path style="opacity:0.1;fill:#FFFFFF;enable-background:new    ;" d="M330.604,429.869c-0.082-0.029-0.142-0.1-0.156-0.186
			c-0.022-0.13,0.066-0.254,0.196-0.276c5.603-0.684,20.065-4.116,33.301-9.326c10.996-4.327,23.947-10.996,23.189-18.167
			c-0.013-0.13,0.081-0.247,0.211-0.262c0.13-0.01,0.245,0.082,0.262,0.211c1.419,13.493-42.895,25.896-55.817,27.863
			c26.632,7.695,68.204,1.63,68.625,1.568c0.002,0,0.003-0.001,0.005-0.001c0.128-0.017,0.246,0.072,0.263,0.2
			c0,0.002,0.001,0.003,0.001,0.005c0.017,0.128-0.072,0.246-0.2,0.263c-11.362,1.522-22.812,2.3-34.276,2.332
			C354.232,434.093,341.161,433.118,330.604,429.869z"/>
		<g>
			<g>
				<path style="fill:#407BFF;" d="M339.661,342.31c-0.952,10.161,3.124,26.634,2.664,47.804c5.279,4.66,29.36,9.609,49.094-1.776
					l-5.975-13.378c0.122-0.998,2.573-35.991,2.523-36.993c-0.547-11.02-4.298-12.825-17.304-13.138
					c-7.249-0.477-13.692-0.333-24.197,1.911C342.199,327.491,340.174,336.814,339.661,342.31z"/>
			</g>
			<g>
				<path style="fill:#407BFF;" d="M382.252,421.19c0,0,27.078-3.686,4.309-42.102l-44.344,9.494c0,0-1.783-0.716-2.863,1.039
					c-0.77,1.253,1.39,2.661,1.39,2.661s-43.708,18.225-46.253,28.779c0,0,26.946,10.435,39.931,10.275
					c7.671-0.094,22.679-2.795,33.917-5.663C376.125,423.685,382.252,421.19,382.252,421.19z"/>
			</g>
			<path style="opacity:0.4;enable-background:new    ;" d="M342.615,388.313c-0.626-0.038,37.544,7.356,37.544,7.356
				S361.383,389.463,342.615,388.313z"/>
			<g style="opacity:0.4;enable-background:new    ;">
				<path d="M340.744,393.371c6.648,4.019,18.123,5.86,25.479,7.086C358.249,400.78,346.44,397.832,340.744,393.371"/>
			</g>
			<g>
				<path style="fill:#407BFF;" d="M367.926,424.124l0.413,20.542c0,0-85.325,9.386-73.848-24.511l68.813,0.986L367.926,424.124z"/>
			</g>
			<path style="opacity:0.4;enable-background:new    ;" d="M382.823,421.235c0,0-3.748,3.654-15.471,7.122
				c-6.448,1.907-19.278,3.222-19.278,3.222L382.823,421.235z"/>
			<path style="opacity:0.4;enable-background:new    ;" d="M305.43,426.607c0,0-6.868,7.152,4.667,14.972
				C310.097,441.579,294.452,433.995,305.43,426.607z"/>
			<g>
				<path style="opacity:0.4;enable-background:new    ;" d="M385.689,352.662c0,0-12.87,27.828-23.201,31.329
					c-10.331,3.501-21.734-14.415-21.734-14.415L385.689,352.662z"/>
				<path style="fill:#B97964;" d="M320.415,336.821c0.045,1.882,0.131,7.661,0.81,8.747s3.248,5.849,3.248,5.849l7.451-6.184
					l-1.999-2.089c0,0,0.418-4.961,0-6.324c-0.418-1.364-1.262-1.447-1.262-1.447s-2.7-11.281-3.755-11.281
					c0,0-1.94-1.118-2.715,1.279C321.418,327.77,320.35,334.107,320.415,336.821z"/>
				<g>
					<path style="fill:#407BFF;" d="M374.72,342.964c-7.563,8.666-14.894,17.541-14.894,17.541l-27.676-16.919l-9.009,9.053
						c0,0,29.095,29.464,36.45,29.254s23.677-25.721,25.703-28.123c0,0,10.569-13.78,1.945-23.009"/>
					<path style="fill:#263238;" d="M374.72,342.964c-0.093,0.107-14.787,17.611-14.867,17.703
						c-0.073-0.06-27.716-16.861-27.8-16.923l0.228-0.027l-8.992,9.07l0.001-0.295c6.538,6.522,13.278,12.853,20.279,18.869
						c3.523,2.973,7.107,5.913,11.017,8.335c1.462,0.84,2.972,1.774,4.664,1.965c2.863-0.007,5.104-2.377,7.171-4.168
						c6.589-6.47,11.865-14.145,17.199-21.654c2.845-3.628,5.26-7.653,6.391-12.144c1.215-4.443,0.506-9.527-2.772-12.934
						c3.323,3.381,4.095,8.492,2.919,12.969c-1.084,4.523-3.481,8.64-6.319,12.263c-5.322,7.55-10.566,15.244-17.161,21.769
						c-2.114,1.855-4.443,4.317-7.456,4.303c-1.769-0.182-3.349-1.147-4.855-2.005c-11.644-7.604-21.479-17.593-31.375-27.273
						c0,0-0.147-0.147-0.147-0.147l0.148-0.148l9.026-9.036l0.104-0.104c-0.002-0.013,27.728,17.03,27.769,17.047
						C359.212,360.747,374.879,342.922,374.72,342.964L374.72,342.964z"/>
				</g>
			</g>
		</g>
		<g>
			<g>
				<g>
					<g>
						<g>
							<g>
								<path style="fill:#B97964;" d="M374.545,326.76c0,0-3.921,1.929-8.756,6.096c-1.007,0.868-2.116,1.619-3.291,2.242
									c-3.168,1.683-6.056,2.646-6.838,1.118c-0.174-0.336-0.308-0.699-0.407-1.081c-0.664-2.558-0.392-6.154,1.676-7.799
									c2.331-1.856,3.455-3.443,3.035-5.955c-0.221-1.424-0.736-2.894-1.338-4.322l2.692-1.616l9.595-9.683
									C369.815,311.697,369.491,323.25,374.545,326.76z"/>
							</g>
							<path style="fill:#263238;" d="M385.689,328.071c0,0-20.372,23.778-36.431,21.338c-16.059-2.44-13.835-10.485-13.835-10.485
								s2.632-4.9,4.413-9.545c1.231-3.037,3.157-6.294,3.157-6.294c-0.899-6.157,0.394-25.675,0.394-25.675
								c-0.313-14.315,8.138-15.217,15.288-18.691c0,0,21.065,13.687,20.365,23.503c-0.699,9.815,3.467,18.419,3.723,20.199"/>
							<path style="fill:#B97964;" d="M372.771,294.843c-0.903,9.858-1.077,14.039-6.165,19.208
								c-7.652,7.775-19.424,5.16-21.451-4.612c-1.824-8.795-0.041-23.439,9.637-27.582
								C364.328,277.775,373.674,284.984,372.771,294.843z"/>
							<path style="fill:#263238;" d="M360.003,298.052c-0.048,1.043-0.613,1.9-1.262,1.913c-0.648,0.014-1.134-0.821-1.086-1.864
								c0.048-1.043,0.613-1.9,1.261-1.913C359.565,296.174,360.051,297.009,360.003,298.052z"/>
							<path style="fill:#263238;" d="M350.28,298.022c-0.049,1.011-0.613,1.841-1.259,1.855c-0.646,0.013-1.131-0.795-1.082-1.806
								c0.049-1.01,0.613-1.841,1.259-1.854C349.845,296.203,350.329,297.012,350.28,298.022z"/>
							<path style="fill:#263238;" d="M362.06,294.419c-0.126,0.014-0.253-0.022-0.351-0.112c-1.519-1.406-3.229-0.913-3.249-0.907
								c-0.253,0.074-0.51-0.07-0.568-0.328c-0.057-0.258,0.104-0.53,0.36-0.607c0.089-0.026,2.236-0.648,4.12,1.098
								c0.188,0.174,0.191,0.482,0.009,0.688C362.293,294.348,362.177,294.406,362.06,294.419z"/>
							<path style="fill:#263238;" d="M347.011,293.075c-0.099-0.033-0.182-0.107-0.225-0.216c-0.09-0.223,0.02-0.507,0.245-0.633
								c2.253-1.267,3.923-0.304,3.994-0.261c0.198,0.118,0.246,0.398,0.107,0.626c-0.139,0.227-0.412,0.316-0.61,0.2
								c-0.065-0.039-1.373-0.764-3.164,0.244C347.24,293.1,347.116,293.111,347.011,293.075z"/>
							<path style="fill:#A24E3F;" d="M352.925,297.542c0,0-1.542,3.69-3.282,5.99c-0.304,0.402-0.116,0.989,0.357,1.163
								c1.217,0.448,2.642,0.043,2.642,0.043L352.925,297.542z"/>
						</g>
						<path style="fill:#263238;" d="M359.288,296.231l-2.263-0.535C357.025,295.696,358.262,297.383,359.288,296.231z"/>
						<path style="fill:#263238;" d="M349.432,296.24l-2.263-0.534C347.169,295.705,348.406,297.393,349.432,296.24z"/>
						<path style="fill:#B97964;" d="M375.754,302.877c-1.164,2.022-3.056,3.291-4.791,3.727c-2.609,0.655-3.957-3.541-3.066-6.155
							c0.802-2.353,3.366-3.911,5.906-3.398C376.304,297.556,377.085,300.565,375.754,302.877z"/>
					</g>
					
						<path style="opacity:0.2;fill:none;stroke:#000000;stroke-width:0.5;stroke-linecap:round;stroke-linejoin:round;stroke-miterlimit:10;" d="
						M370.24,302.352c0.062-0.934,0.508-1.836,1.211-2.453c0.703-0.617,1.656-0.942,2.59-0.882"/>
					
						<path style="fill:none;stroke:#263238;stroke-width:0.5;stroke-linecap:round;stroke-linejoin:round;stroke-miterlimit:10;" d="
						M358.823,305.628c0,0-0.954,2.6-3.879,1.996"/>
				</g>
			</g>
			<g>
				<path style="fill:#263238;" d="M352.759,319.089c13.957,3.729,27.959,1.786,27.959,1.786s5.454-41.16-17.715-42.2
					c-24.445-1.097-17.892,19.401-17.892,19.401s-0.888-10.442,8.964-12.546c9.852-2.105,15.584,11.974,15.584,11.974
					C368.64,318.449,352.925,318.601,352.759,319.089z"/>
			</g>
			<g style="opacity:0.3;">
				<path d="M343.328,323.617c7.256-0.478,12.288-2.844,17.774-7.617C351.755,320.875,350.107,321.753,343.328,323.617z"/>
			</g>
			<path style="opacity:0.3;" d="M381.276,317.793c-0.248-0.157-16.538,25.753-45.853,21.131c0,0,7.58,4.641,26.223-2.564
				C372.342,332.227,381.276,317.793,381.276,317.793z"/>
		</g>
	</g>
</g>
<g id="Character_1">
	<g>
		<g>
			<path style="fill:#7D2F30;" d="M197.387,319.036c-0.048,2.002-0.14,8.152-0.862,9.307c-0.722,1.156-3.523,6.837-3.523,6.837
				l-8.045-6.567l2.31-2.849c0,0-0.445-5.278,0-6.729c0.445-1.451,1.342-1.54,1.342-1.54s2.873-12.003,3.995-12.003
				c0,0,2.064-1.189,2.889,1.361C196.32,309.406,197.456,316.148,197.387,319.036z"/>
			<g>
				<path style="fill:#407BFF;" d="M161.077,309.365c0.39-0.017,9.622,0.109,12.805,9.989c1.753,5.44,3.768,21.95,3.768,21.95
					l5.645-13.237l10.923,6.973c0,0-7.364,24.077-10.923,28.986c-3.559,4.909-11.105,6.521-11.105,6.521l-6.813-26.893
					L161.077,309.365z"/>
			</g>
			<path style="opacity:0.4;enable-background:new    ;" d="M172.189,370.547l3.535-1.135c0,0-5.367-44.249-5.372-44.642
				C170.347,324.378,172.189,370.547,172.189,370.547z"/>
		</g>
		<path style="fill:#E0E0E0;" d="M113.211,430.881l4.032-8.611c0.283-0.323,0.27-0.809-0.029-1.117l-6.195-6.336
			c-2.297-1.758-5.584-1.32-7.342,0.977c-0.028,0.036-0.055,0.073-0.082,0.11c-1.91,2.604-2.939,5.366-6.031,7.735
			c-4.914,3.779-3.227,2.257-10.321,3.873c-4.285,0.982-4.056,5.501-2.128,5.478c8.758-0.112,16.675-0.041,25.498-1.176
			C111.546,431.735,112.441,431.413,113.211,430.881z"/>
		<g>
			<path d="M217.204,424.004c-1.268-10.561-64.105-35.841-64.105-35.841l-27.403-1.909c-3.163,18.429,1.402,24.707,8.974,27.159
				c-5.449,0.896-16.963,1.659-22.184,3.46c-4.357,1.5-4.41,5.788-3.615,9.682c0.458,2.226,2.194,2.678,3.394,3.005
				c-0.012,0,53.669,16.21,83.262,11.291C206.096,439.094,218.12,431.676,217.204,424.004z"/>
		</g>
		<path style="opacity:0.4;enable-background:new    ;" d="M217.204,424.004c-1.456-11.374-47.236-33.362-47.236-33.362l-38.144-1.7
			c-8.055,19.421-1.722,28.057,7.005,30.698c-6.281,0.965-12.463,2.425-18.481,4.364c-5.022,1.615-7.121,7.395-3.845,11.334
			c0.893,1.127,2.153,1.954,3.591,2.358"/>
		<g>
			<path style="fill:#407BFF;" d="M102.686,439.599l4.161-8.886c0.292-0.333,0.279-0.835-0.03-1.152l-6.393-6.538
				c-2.37-1.813-5.762-1.362-7.576,1.008c-0.029,0.037-0.057,0.075-0.085,0.114c-1.971,2.687-3.033,5.538-6.223,7.982
				c-5.071,3.9-3.33,2.329-10.651,3.997c-4.422,1.013-4.185,5.677-2.196,5.653c9.037-0.115,17.207-0.043,26.311-1.213
				C100.967,440.481,101.891,440.148,102.686,439.599z"/>
		</g>
		<g>
			<path style="fill:#263238;" d="M200.603,428.985c-1.462-12.173-53.483-35.633-53.483-35.633l-31.586-2.2
				c-3.646,21.242,1.616,28.478,10.344,31.305c-6.281,1.033-19.552,1.913-25.57,3.988c-5.022,1.729-5.083,6.672-4.167,11.16
				c0.528,2.566,2.529,3.087,3.912,3.463C100.035,441.067,204.618,462.587,200.603,428.985z"/>
			<path style="opacity:0.1;fill:#FFFFFF;enable-background:new    ;" d="M141.012,436.603c-12.198-0.033-24.38-0.862-36.47-2.481
				c-0.136-0.018-0.231-0.144-0.213-0.28c0-0.002,0.001-0.004,0.001-0.005c0.018-0.136,0.144-0.232,0.28-0.213
				c0.002,0,0.003,0,0.005,0.001c0.449,0.067,44.683,6.52,73.02-1.668c-13.75-2.092-60.901-15.29-59.391-29.647
				c0.019-0.137,0.141-0.235,0.279-0.224c0.139,0.016,0.239,0.14,0.224,0.279c-0.807,7.63,12.974,14.727,24.673,19.33
				c14.084,5.544,29.471,9.195,35.433,9.923c0.139,0.023,0.232,0.155,0.209,0.294c-0.015,0.091-0.079,0.167-0.166,0.198
				C167.663,435.566,153.755,436.603,141.012,436.603z"/>
			<path style="opacity:0.4;enable-background:new    ;" d="M127.559,422.922c0,0,14.011,9.675,27.019,9.787
				c13.008,0.112,18.26-0.086,18.26-0.086L127.559,422.922z"/>
		</g>
		<g>
			<g>
				<path style="fill:#407BFF;" d="M161.608,309.384c-13.809-0.512-17.623-0.853-25.337-0.275
					c-13.84,0.378-17.83,2.564-18.412,15.903c-0.053,1.213-0.13,43.13,0,44.337c-0.742,9.901-3.029,15.913-3.539,22.827
					c20.998,13.78,51.987,4.651,57.604-0.989c-0.49-25.626,2.774-52.271,1.761-64.571
					C173.14,319.962,166.149,310.292,161.608,309.384z"/>
			</g>
			<g>
				<path style="fill:#407BFF;" d="M123.94,421.911c0,0-13.759-1.894-9.501-30.759l57.416-4.776c0,0,1.742,0.716,2.37,2.348
					c0.241,0.626,0.383,2.428,0.383,2.428s39.453,19.603,42.16,30.833c-4.554-4.83-30.945,7.896-41.936,10.723
					C161.451,436.149,123.94,421.911,123.94,421.911z"/>
			</g>
			<path style="opacity:0.4;enable-background:new    ;" d="M124.464,339.509c0,0,19.155,29.009,30.148,32.734
				s17.577-14.849,17.577-14.849L124.464,339.509z"/>
			<path style="opacity:0.4;enable-background:new    ;" d="M171.855,386.376c0.666-0.041-39.948,7.827-39.948,7.827
				S151.885,387.6,171.855,386.376z"/>
			<g style="opacity:0.4;enable-background:new    ;">
				<path d="M148.995,398.629c8.484,0.343,23.951-3.244,25.613-7.477C167.535,395.428,156.822,397.323,148.995,398.629z"/>
			</g>
		</g>
		<g>
			<path style="fill:#8E4B4C;" d="M194.963,317.724c-0.048,2.002-0.14,8.152-0.862,9.307c-0.722,1.156-3.523,6.837-3.523,6.837
				l-8.045-6.567l2.31-2.849c0,0-0.445-5.278,0-6.729c0.445-1.451,1.342-1.54,1.342-1.54s2.873-12.003,3.995-12.003
				c0,0,2.064-1.189,2.889,1.361C193.895,308.093,195.032,314.836,194.963,317.724z"/>
			<g>
				<path style="fill:#407BFF;" d="M139.069,323.847c6.687,6.615,20.601,20.076,20.601,20.076l22.094-17.574l9.532,8.133
					c0,0-25.089,33.527-32.915,33.303c-7.826-0.224-33.244-27.367-35.4-29.923c0,0-11.246-14.662-2.07-24.483"/>
				<path style="fill:#263238;" d="M139.069,323.847c-0.111,0.07,21.234,20.19,20.519,19.973c-0.001,0,22.063-17.613,22.063-17.613
					l0.117-0.094l0.115,0.098l9.546,8.116l0.146,0.125c-3.071,4.081-6.236,8.084-9.483,12.024
					c-4.835,5.81-9.781,11.576-15.418,16.638c-2.162,1.832-4.363,3.834-7.124,4.705c-0.917,0.329-1.995,0.107-2.899-0.18
					c-3.564-1.385-6.574-3.825-9.544-6.16c-3.915-3.186-7.616-6.616-11.241-10.117c-3.619-3.509-7.151-7.104-10.594-10.785
					c-1.768-1.796-3.388-3.775-4.543-6.038c-3.654-6.372-5.493-15.387,0.182-21.159c-3.586,3.723-4.257,9.285-2.867,14.112
					c1.35,4.832,3.833,9.373,7.426,12.9c6.93,7.289,14.082,14.425,21.875,20.793c3.189,2.434,6.406,5.204,10.326,6.3
					c0.894,0.176,1.8,0.005,2.626-0.389c2.266-1.018,4.205-2.699,6.073-4.325c9.221-8.554,17.07-18.485,24.763-28.411
					c0,0,0.031,0.277,0.031,0.277l-9.518-8.149c1.137-0.391-22.195,17.617-21.893,17.54c-0.118,0.095-0.076,0.083-0.175-0.009
					L139.069,323.847L139.069,323.847z"/>
			</g>
		</g>
		<g>
			<g>
				<g>
					<g>
						<g>
							<path style="fill:#8E4B4C;" d="M138.593,308.914c0,0,1.614-5.217-2.121-16.275c0-0.012,0.578-0.299,0.578-0.311
								c-0.516-1.547-1.055-2.974-1.559-4.209c-0.012-0.036-0.012-0.048-0.012-0.048l15.732,8.801
								c-0.204,3.597,0.839,8.525,1.733,11.414c0,0,3.084,6.764-1.133,6.994C146.667,315.56,138.593,308.914,138.593,308.914z"/>
							<path style="opacity:0.2;" d="M151.693,301.896l-8.903-1.604c0.919,2.707,3.488,5.852,9.635,5.85
								C152.425,306.142,151.679,303.1,151.693,301.896z"/>
						</g>
						<path style="fill:#8E4B4C;" d="M135.037,280.634c1.456,9.667,2.082,15.149,7.438,19.658
							c8.056,6.783,19.409,1.404,20.875-8.533c1.319-8.944-1.283-23.251-11.151-26.185
							C142.477,262.683,133.582,270.966,135.037,280.634z"/>
						<path style="fill:#263238;" d="M132.772,269.055c0.861-5.474,14.281-6.719,18.272-4.313c0.597,0.36,6.229,3.86,6.695,3.642
							l-16.529,2.419c-0.588-0.077-1.992,1.099-2.42,2.943c0,0,1.743,14.865-2.099,19.552c-3.54-1.355-4.26-7.245-5.641-10.667
							C128.993,277.531,128.74,270.169,132.772,269.055z"/>
						<path style="fill:#8E4B4C;" d="M131.914,289.076c0.998,2.434,3.031,4.169,5.044,4.956c3.028,1.185,3.829-2.082,3.284-5.121
							c-0.491-2.734-1.592-6.021-4.774-5.907C132.335,283.117,130.773,286.293,131.914,289.076z"/>
						<path style="fill:#263238;" d="M149.444,282.191c0.088,0.995,0.687,1.749,1.337,1.685c0.65-0.064,1.107-0.922,1.019-1.917
							c-0.088-0.995-0.686-1.749-1.337-1.685C149.813,280.338,149.356,281.197,149.444,282.191z"/>
						<path style="fill:#263238;" d="M159.334,282.191c0.088,0.995,0.686,1.749,1.337,1.685c0.651-0.064,1.107-0.922,1.019-1.917
							c-0.088-0.995-0.686-1.749-1.337-1.685C159.702,280.338,159.246,281.197,159.334,282.191z"/>
						<path style="fill:#7D2F30;" d="M155.748,281.272c0,0,3.585,4.664,4.772,6.588c-1.274,1.373-3.71,1.007-3.71,1.007
							L155.748,281.272z"/>
						<path style="fill:#263238;" d="M146.353,277.738c0.156,0.048,0.333,0.013,0.461-0.107c1.531-1.428,3.21-1.046,3.226-1.042
							c0.251,0.06,0.505-0.094,0.568-0.344c0.062-0.25-0.092-0.502-0.341-0.562c-0.088-0.022-2.192-0.501-4.091,1.271
							c-0.19,0.177-0.201,0.472-0.025,0.659C146.209,277.673,146.278,277.715,146.353,277.738z"/>
						<path style="fill:#263238;" d="M138.593,284.501c0,0,0.118,0.18,0.323,0.473c0.851,1.216,3.196,4.375,4.751,4.6
							c1.93,0.28,2.804-1.308,8.019,0c5.215,1.308,10.817,1.008,11.939-0.664c0,0,1.496,7.288,0.936,8.133
							c-0.561,0.845-0.478,3.087-0.893,3.928c-0.415,0.841-0.321,3.296-1.629,3.329c-1.308,0.034-1.527,1.841-1.527,1.841
							l-2.772,0.717h-2.615c0,0-5.693-0.842-7.518-2.15c-1.824-1.308-3.548-2.689-4.375-2.668c-0.827,0.021-3.605-3.03-3.605-3.03
							l-2.669-4.979c0,0,7.56,0.956,1.752-9.35"/>
						
							<path style="opacity:0.2;fill:none;stroke:#000000;stroke-width:0.5;stroke-linecap:round;stroke-linejoin:round;stroke-miterlimit:10;" d="
							M133.897,286.192c0.34-0.615,1.12-0.899,1.815-0.792c0.694,0.107,1.302,0.543,1.766,1.071
							c0.557,0.633,0.946,1.414,1.114,2.241"/>
						<path style="fill:#FFFFFF;" d="M155.342,292.222c-1.612,0.155-3.364-0.124-4.72-1.215c0,0,0.269,2.1,1.749,2.416
							C154.824,293.947,155.342,292.222,155.342,292.222z"/>
					</g>
					<path style="fill:#263238;" d="M162.904,276.965c0.085-0.026,0.163-0.077,0.224-0.152c0.164-0.201,0.136-0.496-0.062-0.66
						c-1.988-1.64-4.037-0.991-4.132-0.973c-0.245,0.079-0.383,0.343-0.306,0.589c0.076,0.246,0.335,0.381,0.58,0.305
						c0.084-0.03,1.669-0.511,3.264,0.806C162.597,276.984,162.76,277.01,162.904,276.965z"/>
				</g>
			</g>
			<path style="fill:#407BFF;" d="M130.244,280.546c0,0,8.296-14.224,23.005-12.743c2.453,0.247,4.531,0.918,5.938,2.942
				c0.092,0.132,0.178,0.264,0.257,0.395c0,0-3.549-12.288-16.653-11.289C129.686,260.849,128.121,274.597,130.244,280.546z"/>
		</g>
	</g>
</g>
<g id="Speech_Bubble">
	<g>
		<g>
			<g>
				<path style="fill:#407BFF;" d="M273.714,96.153h28.172c5.651,0,10.232,4.581,10.232,10.232v17.085
					c0,5.651-4.581,10.232-10.232,10.232h-7.213l-6.873,6.53l-1.003-6.53h-13.083c-5.651,0-10.231-4.581-10.231-10.231v-17.086
					C263.483,100.733,268.063,96.153,273.714,96.153z"/>
			</g>
			<g>
				<path style="fill:#FFFFFF;" d="M280.546,114.973c0,1.664-1.349,3.014-3.014,3.014c-1.664,0-3.014-1.349-3.014-3.014
					c0-1.665,1.349-3.014,3.014-3.014C279.197,111.959,280.546,113.308,280.546,114.973z"/>
				<path style="fill:#FFFFFF;" d="M290.814,114.973c0,1.664-1.35,3.014-3.014,3.014c-1.664,0-3.014-1.349-3.014-3.014
					c0-1.665,1.349-3.014,3.014-3.014C289.464,111.959,290.814,113.308,290.814,114.973z"/>
				<path style="fill:#FFFFFF;" d="M301.353,114.973c0,1.664-1.349,3.014-3.014,3.014c-1.665,0-3.014-1.349-3.014-3.014
					c0-1.665,1.349-3.014,3.014-3.014C300.004,111.959,301.353,113.308,301.353,114.973z"/>
			</g>
		</g>
		<g>
			<g>
				<path style="fill:#407BFF;" d="M273.241,94.644c5.332,0,10.663,0,15.995,0c0.483,0,0.483-0.75,0-0.75
					c-5.332,0-10.663,0-15.995,0C272.758,93.894,272.758,94.644,273.241,94.644L273.241,94.644z"/>
			</g>
		</g>
		<g>
			<g>
				<path style="fill:#407BFF;" d="M291.242,94.644c0.447,0,0.893,0,1.34,0c0.196,0,0.384-0.173,0.375-0.375
					c-0.009-0.203-0.165-0.375-0.375-0.375c-0.447,0-0.893,0-1.34,0c-0.196,0-0.384,0.173-0.375,0.375
					C290.876,94.472,291.032,94.644,291.242,94.644L291.242,94.644z"/>
			</g>
		</g>
	</g>
</g>
<g id="Book">
	<g>
		<path style="fill:#407BFF;" d="M337.51,151.055l-43.396,1.101c-1.395,0.035-2.46,1.252-2.301,2.639
			c1.258,10.917,6.128,52.88,6.703,53.627c0.662,0.859,31.549-8.292,38.911-3.302l0.008,0.478c0.014,0.807,0.669,1.453,1.477,1.453
			c1.782,0.001,4.62,0.072,6.367,0.121c0.843,0.024,1.527-0.661,1.513-1.504l-0.027-1.576c0,0,9.282-1.702,19.18-2.182
			c10.709-0.52,16.957,0.383,19.134-0.42c2.176-0.803-6.342-57.454-6.342-57.454L337.51,151.055z"/>
		<path style="opacity:0.3;fill:#FFFFFF;" d="M302.06,205.341l0.029,1.688c0,0,14.671-6.026,26.588-5.21
			c6.422,0.439,9.8,0.9,11.55,1.231c1.304,0.247,2.634,0.115,3.871-0.365c3.493-1.356,10.878-3.982,18.026-4.985
			c9.824-1.379,20.258,2.501,20.258,2.501l-0.04-2.301c0,0-18.22-9.565-18.65-9.471c-0.43,0.094-19.863,0.342-19.863,0.342
			l-40.253,10.198L302.06,205.341z"/>
		<path style="fill:#407BFF;" d="M294.938,150.573l6.178,55.175c0,0,23.613-10.743,38.343-3.506c1.681,0.826,2.15,0.972,3.683-0.104
			c6.099-4.281,23.714-13.533,40.742-3.367l-5.813-55.853c0,0-28.166-11.156-40.561,8.138
			C337.51,151.055,317.465,130.85,294.938,150.573z"/>
		<path style="opacity:0.6;fill:#FFFFFF;" d="M294.938,150.573l6.178,55.175c0,0,23.613-10.743,38.343-3.506
			c1.681,0.826,2.15,0.972,3.683-0.104c6.099-4.281,23.714-13.533,40.742-3.367l-5.813-55.853c0,0-28.166-11.156-40.561,8.138
			C337.51,151.055,317.465,130.85,294.938,150.573z"/>
		<g>
			<path style="fill:#263238;" d="M337.51,151.055c1.674,17.22,3.195,34.454,4.56,51.701
				C340.395,185.537,338.876,168.303,337.51,151.055L337.51,151.055z"/>
		</g>
		<g>
			<g>
				<path style="fill:#263238;" d="M343.881,162.198c8.236-7.344,20.413-9.249,30.886-6.424
					C364.208,153.281,352.33,155.116,343.881,162.198L343.881,162.198z"/>
			</g>
			<g>
				<path style="fill:#263238;" d="M343.015,157.35c8.235-7.389,20.399-9.136,30.886-6.424
					C363.33,148.547,351.464,150.222,343.015,157.35L343.015,157.35z"/>
			</g>
			<g>
				<path style="fill:#263238;" d="M344.241,165.902c8.237-7.41,20.391-9.046,30.886-6.424
					C364.549,157.19,352.691,158.754,344.241,165.902L344.241,165.902z"/>
			</g>
			<g>
				<path style="fill:#263238;" d="M344.601,169.607c8.237-7.389,20.398-9.1,30.886-6.424
					C364.915,160.84,353.051,162.48,344.601,169.607L344.601,169.607z"/>
			</g>
			<g>
				<path style="fill:#263238;" d="M344.961,173.312c8.144-7.418,20.151-8.998,30.589-6.514
					C365.037,164.647,353.308,166.159,344.961,173.312L344.961,173.312z"/>
			</g>
			<g>
				<path style="fill:#263238;" d="M345.321,177.017c8.226-7.481,20.375-9.03,30.886-6.424
					C365.618,168.319,353.75,169.801,345.321,177.017L345.321,177.017z"/>
			</g>
			<g>
				<path style="fill:#263238;" d="M345.768,181.621c8.231-7.497,20.369-8.898,30.886-6.424
					C366.062,173.056,354.201,174.39,345.768,181.621L345.768,181.621z"/>
			</g>
			<g>
				<path style="fill:#263238;" d="M345.758,185.917c8.231-7.422,20.391-9.115,30.886-6.424
					C366.069,177.134,354.191,178.762,345.758,185.917L345.758,185.917z"/>
			</g>
			<g>
				<path style="fill:#263238;" d="M346.287,191.374c8.243-7.441,20.38-8.841,30.886-6.424
					C366.594,182.866,354.732,184.199,346.287,191.374L346.287,191.374z"/>
			</g>
		</g>
		<g>
			<g>
				<path style="fill:#263238;" d="M333.703,162.473c-9.801-4.973-21.985-4.682-31.538,0.752
					C311.542,157.49,324.064,157.193,333.703,162.473L333.703,162.473z"/>
			</g>
			<g>
				<path style="fill:#263238;" d="M333.447,157.555c-9.801-4.974-21.985-4.682-31.538,0.752
					C311.285,152.572,323.807,152.275,333.447,157.555L333.447,157.555z"/>
			</g>
			<g>
				<path style="fill:#263238;" d="M334.194,166.163c-9.801-4.974-21.985-4.682-31.538,0.752
					C312.032,161.18,324.554,160.883,334.194,166.163L334.194,166.163z"/>
			</g>
			<g>
				<path style="fill:#263238;" d="M334.684,169.852c-9.801-4.973-21.985-4.682-31.538,0.752
					C312.522,164.87,325.044,164.573,334.684,169.852L334.684,169.852z"/>
			</g>
			<g>
				<path style="fill:#263238;" d="M335.174,173.542c-9.801-4.974-21.985-4.682-31.538,0.752
					C313.013,168.56,325.534,168.263,335.174,173.542L335.174,173.542z"/>
			</g>
			<g>
				<path style="fill:#263238;" d="M335.664,177.232c-9.801-4.974-21.985-4.682-31.538,0.752
					C313.503,172.25,326.025,171.953,335.664,177.232L335.664,177.232z"/>
			</g>
			<g>
				<path style="fill:#263238;" d="M336.274,181.818c-9.801-4.974-21.985-4.682-31.538,0.752
					C314.112,176.836,326.634,176.538,336.274,181.818L336.274,181.818z"/>
			</g>
			<g>
				<path style="fill:#263238;" d="M337.258,185.999c-9.801-4.974-21.985-4.682-31.538,0.752
					C315.097,181.017,327.619,180.72,337.258,185.999L337.258,185.999z"/>
			</g>
			<g>
				<path style="fill:#263238;" d="M337.981,191.434c-9.801-4.974-21.985-4.682-31.538,0.752
					C315.82,186.452,328.341,186.155,337.981,191.434L337.981,191.434z"/>
			</g>
		</g>
		<path style="fill:#407BFF;" d="M341.102,146.665c0,0,4.056,50.298,4.26,49.863c0.204-0.435,1.739-3.05,1.739-3.05l2.326,1.398
			l-4.58-51.139C344.847,143.736,341.834,142.557,341.102,146.665z"/>
	</g>
</g>
</svg>
